<?xml version="1.0" encoding="utf-8"?>
<!-- Generator: Adobe Illustrator 25.2.3, SVG Export Plug-In . SVG Version: 6.00 Build 0)  -->
<!DOCTYPE svg PUBLIC "-//W3C//DTD SVG 1.1//EN" "http://www.w3.org/Graphics/SVG/1.1/DTD/svg11.dtd" [
	<!ENTITY ns_extend "http://ns.adobe.com/Extensibility/1.0/">
	<!ENTITY ns_ai "http://ns.adobe.com/AdobeIllustrator/10.0/">
	<!ENTITY ns_graphs "http://ns.adobe.com/Graphs/1.0/">
	<!ENTITY ns_vars "http://ns.adobe.com/Variables/1.0/">
	<!ENTITY ns_imrep "http://ns.adobe.com/ImageReplacement/1.0/">
	<!ENTITY ns_sfw "http://ns.adobe.com/SaveForWeb/1.0/">
	<!ENTITY ns_custom "http://ns.adobe.com/GenericCustomNamespace/1.0/">
	<!ENTITY ns_adobe_xpath "http://ns.adobe.com/XPath/1.0/">
]>
<svg version="1.1" id="Calque_1" xmlns:x="&ns_extend;" xmlns:i="&ns_ai;" xmlns:graph="&ns_graphs;"
	 xmlns="http://www.w3.org/2000/svg" xmlns:xlink="http://www.w3.org/1999/xlink" x="0px" y="0px" viewBox="0 0 469.6 477.6"
	 style="enable-background:new 0 0 469.6 477.6;" xml:space="preserve">
<style type="text/css">
	.st0{fill-rule:evenodd;clip-rule:evenodd;fill:#189C55;}
	.st1{fill-rule:evenodd;clip-rule:evenodd;fill:#FFDC34;}
	.st2{fill-rule:evenodd;clip-rule:evenodd;fill:#5785C4;}
	.st3{fill-rule:evenodd;clip-rule:evenodd;fill:#FFFFFF;}
	.st4{fill-rule:evenodd;clip-rule:evenodd;fill:#CCC9C9;}
	.st5{fill:#EFEFEF;}
	.st6{fill:#DC4B3E;}
	.st7{fill:#802C27;}
</style>
<metadata>
	<sfw  xmlns="&ns_sfw;">
		<slices></slices>
		<sliceSourceBounds  bottomLeftOrigin="true" height="477.6" width="469.6" x="725.7" y="301.7"></sliceSourceBounds>
	</sfw>
</metadata>
<g>
	<path class="st0" d="M0,434.7v-340c0-19.8,16-35.8,35.8-35.8h340L0,434.7z"/>
	<path class="st1" d="M0,441.8v-7.1L375.8,58.9h7.1c19.8,0,35.8,16,35.8,35.8v7.1L43,477.6h-7.1C16.1,477.6,0,461.6,0,441.8z"/>
	<polygon class="st2" points="43,477.6 209.4,311.2 375.8,477.6 	"/>
	<path class="st3" d="M375.8,477.6l-169-169l42.9-42.9l169,169v7.1c0,19.8-16,35.8-35.8,35.8L375.8,477.6L375.8,477.6z"/>
	<polygon class="st4" points="418.7,434.7 252.3,268.3 418.7,101.8 	"/>
	<path class="st5" d="M74.7,105.2c21.3-9.8,48-5.8,65.3,10.2c-5.4,5.5-11,10.9-16.5,16.3c-17.3-17.2-49.8-9-57.9,13.7
		c-10.6,22.4,7,51.7,32,52.1c16.3,1.9,32.6-9,36-25.3c-11.4,0-22.8-0.1-34.2,0.1c-0.3-7-0.4-14.1-0.2-21.1c19,0.5,38.5-1.1,57.3,0.8
		c1.4,13.9,0.4,28.7-7,40.9c-11.7,21.9-39.5,31.4-62.9,25.9c-29-6-50.7-35.8-46.8-65.2C41.7,132.7,55.8,113.8,74.7,105.2z"/>
	<g>
		<g>
			<g>
				<path class="st6" d="M345.6,0h13.6c33.9,1.9,67.1,18.5,87.7,45.8c13.5,17.2,21,38.6,22.7,60.3v8.1c-0.8,42.1-27.7,76.6-51,109.4
					c-26.2,37-50.4,77.3-57.1,122.9c-1.8,7.7,0.4,18.5-8.9,22c-2.2-1.7-4.7-3.1-6.2-5.4c-2.7-25.5-9.1-50.7-20-73.9
					c-12.3-27.1-29.5-51.6-47-75.6c-10.6-14.4-20.6-29.3-28.9-45.1c-13-23.8-17.9-51.9-12.5-78.6c4.4-21.1,15.4-40.6,30.6-55.7
					C289.1,13.9,316.9,1.7,345.6,0z M343,74.1c-16.1,3.6-29.6,17.8-31,34.5c-1.7,15.5,7.4,31.3,21.3,38.1c15.1,8,34.9,5.5,47.5-6
					c11.8-10.4,16-28.3,9.9-42.9C383.4,79.6,361.8,69.3,343,74.1z"/>
			</g>
		</g>
		<g>
			<path class="st7" d="M343,74.1c18.9-4.8,40.4,5.5,47.7,23.7c6.1,14.5,1.9,32.5-9.9,42.9c-12.6,11.5-32.4,14-47.5,6
				c-13.9-6.8-23-22.6-21.3-38.1C313.4,91.9,326.9,77.7,343,74.1z"/>
		</g>
	</g>
</g>
</svg>
