<?xml version="1.0" standalone="no"?>
<!DOCTYPE svg PUBLIC "-//W3C//DTD SVG 20010904//EN"
 "http://www.w3.org/TR/2001/REC-SVG-20010904/DTD/svg10.dtd">
<svg version="1.0" xmlns="http://www.w3.org/2000/svg"
 width="893.000000pt" height="893.000000pt" viewBox="0 0 893.000000 893.000000"
 preserveAspectRatio="xMidYMid meet">
<metadata>
Created by potrace 1.14, written by Peter Selinger 2001-2017
</metadata>
<g transform="translate(0.000000,893.000000) scale(0.100000,-0.100000)"
fill="#000000" stroke="none">
<path d="M4768 8265 c-2 -1 -48 -5 -103 -9 -99 -7 -128 -9 -215 -21 -376 -51
-731 -158 -1075 -325 -106 -51 -150 -75 -280 -150 -147 -84 -432 -295 -556
-410 -316 -295 -529 -554 -734 -894 -179 -299 -371 -750 -380 -894 -6 -111 54
-162 166 -139 56 12 83 50 132 187 96 271 207 504 341 715 385 608 939 1071
1598 1334 106 42 310 111 373 126 11 3 47 11 80 20 81 20 240 52 295 60 25 3
58 8 74 11 16 3 50 7 75 9 25 3 82 8 126 12 44 4 172 8 285 8 233 0 357 -9
510 -36 30 -5 73 -12 95 -15 60 -9 288 -69 395 -104 794 -264 1464 -846 1920
-1668 87 -156 152 -227 249 -274 161 -77 352 -15 428 139 50 103 31 252 -50
403 -63 116 -222 350 -312 459 -219 266 -461 491 -740 689 -206 145 -519 319
-740 411 -44 19 -94 40 -111 47 -191 83 -666 216 -886 248 -18 3 -64 10 -103
16 -112 16 -126 18 -200 25 -38 4 -86 9 -105 12 -39 5 -546 13 -552 8z"/>
<path d="M4990 5483 c-22 -8 -70 -55 -70 -69 0 -6 48 -56 107 -110 59 -55 136
-126 171 -159 80 -74 83 -76 105 -60 18 13 9 27 -120 209 -139 196 -148 205
-193 189z"/>
<path d="M403 5023 c-200 -34 -340 -169 -378 -364 -30 -160 12 -311 117 -425
58 -63 116 -96 278 -160 248 -97 303 -132 345 -219 52 -106 30 -267 -48 -352
-66 -72 -125 -97 -227 -97 -74 -1 -93 3 -151 30 -71 34 -126 83 -177 156 -39
57 -102 186 -102 209 0 19 -19 35 -40 35 -12 -1 -14 -19 -13 -101 1 -55 2
-162 2 -237 1 -128 2 -138 20 -138 10 0 30 17 44 39 l26 40 58 -29 c87 -44
181 -63 313 -63 323 0 519 158 537 435 17 246 -95 405 -354 502 -133 51 -127
48 -223 94 -158 75 -218 165 -207 311 6 86 11 104 42 157 49 84 153 131 264
121 133 -12 240 -111 327 -304 34 -76 48 -98 64 -99 20 -1 20 3 18 219 -3 203
-4 220 -21 223 -11 1 -27 -12 -42 -37 l-25 -39 -63 34 c-110 61 -247 81 -384
59z"/>
<path d="M1636 5013 c-1 -2 -91 -3 -198 -3 -150 -1 -198 -4 -201 -14 -8 -20 7
-36 39 -42 117 -20 148 -47 161 -137 10 -70 9 -1153 -1 -1237 -12 -104 -33
-129 -135 -160 -41 -13 -55 -22 -58 -39 l-3 -21 329 0 c266 0 330 3 334 13 9
23 -6 34 -48 39 -74 9 -153 70 -156 121 -1 12 -3 33 -5 47 -4 35 -6 451 -2
455 1 1 66 5 143 8 145 6 162 8 257 32 117 29 222 104 283 200 128 201 80 490
-105 627 -89 66 -167 92 -309 103 -83 7 -320 12 -325 8z m254 -67 c99 -13 188
-71 247 -163 49 -77 64 -126 68 -224 11 -249 -134 -430 -364 -454 -140 -15
-151 -14 -151 9 -3 118 2 712 5 746 10 85 12 89 53 92 38 3 81 1 142 -6z"/>
<path d="M2640 4985 c0 -18 7 -24 38 -30 60 -11 100 -35 124 -74 l23 -36 1
-595 c2 -618 -4 -740 -34 -773 -21 -24 -63 -46 -115 -61 -29 -8 -41 -17 -43
-34 l-4 -22 308 2 c296 3 307 4 307 22 0 14 -10 22 -35 28 -56 14 -96 39 -116
72 -17 28 -19 60 -22 354 l-4 322 59 0 c32 1 202 1 378 1 l320 1 0 -308 c-1
-170 -4 -326 -8 -346 -9 -45 -49 -72 -133 -91 -48 -11 -60 -18 -62 -35 l-3
-22 319 0 320 0 -2 24 c-1 21 -8 25 -41 31 -50 7 -98 35 -122 72 -17 25 -18
67 -18 678 0 357 2 659 5 670 17 63 62 101 143 120 19 5 27 13 27 29 l0 23
-310 0 -310 0 0 -22 c0 -19 7 -23 50 -29 55 -7 101 -40 127 -90 14 -26 17 -79
21 -332 l4 -300 -382 -1 -382 -1 4 302 c4 295 4 302 28 343 19 35 34 47 77 63
30 11 60 20 68 20 10 0 14 8 11 23 l-3 22 -306 1 -307 2 0 -23z"/>
<path d="M4512 4985 c-1 -19 6 -24 51 -34 64 -14 91 -32 115 -74 16 -29 17
-80 18 -602 0 -561 -5 -713 -27 -767 -14 -35 -62 -70 -119 -88 -49 -15 -61
-26 -53 -47 4 -11 115 -13 618 -13 576 0 614 1 619 18 6 21 82 354 91 399 5
25 2 34 -13 42 -16 9 -22 3 -47 -42 -107 -198 -209 -300 -337 -334 -79 -22
-341 -25 -406 -5 -72 22 -74 35 -80 410 l-4 323 101 -2 c172 -4 237 -41 297
-166 20 -42 41 -98 47 -124 11 -48 37 -70 55 -45 4 6 7 171 7 366 l-1 355 -24
3 c-23 3 -26 -2 -37 -60 -18 -92 -59 -165 -115 -204 -55 -37 -112 -52 -239
-60 l-90 -5 2 305 c2 322 7 392 30 408 14 9 311 5 354 -5 79 -19 111 -33 165
-74 61 -45 147 -138 205 -220 31 -44 46 -51 62 -30 7 8 -3 49 -33 132 -24 66
-55 152 -69 191 l-26 71 -557 0 -558 0 -2 -22z"/>
<path d="M6000 4985 c0 -21 7 -25 56 -35 77 -16 111 -49 124 -120 13 -69 12
-1181 -2 -1265 -5 -33 -16 -70 -24 -82 -17 -27 -76 -59 -127 -68 -30 -6 -37
-11 -37 -31 l0 -24 329 0 329 0 0 25 c0 21 -6 25 -29 26 -33 2 -36 2 -69 13
-41 14 -78 47 -96 85 -14 29 -18 81 -22 323 l-4 288 32 0 c134 0 229 -107 489
-550 50 -85 101 -167 114 -182 l24 -28 212 0 211 0 0 23 c0 18 -10 25 -58 39
-121 35 -166 87 -362 408 -74 122 -154 243 -178 270 l-43 49 26 7 c37 9 134
74 178 120 42 42 90 129 102 182 22 102 8 228 -36 318 -30 64 -112 142 -185
179 -94 46 -170 53 -581 53 l-373 0 0 -23z m682 -55 c158 -49 253 -185 249
-360 -3 -152 -69 -273 -181 -330 -59 -30 -174 -57 -254 -59 l-68 -2 5 377 c4
298 8 379 19 386 22 14 169 7 230 -12z"/>
<path d="M7600 4985 c0 -18 9 -24 55 -34 31 -7 67 -23 82 -35 45 -39 49 -98
47 -691 -2 -701 -4 -722 -73 -769 -33 -23 -105 -52 -121 -49 -3 1 -7 -9 -8
-23 l-2 -24 620 0 c341 0 620 4 620 8 0 5 22 104 50 221 27 118 47 217 44 222
-13 21 -41 7 -58 -28 -34 -71 -125 -199 -176 -247 -51 -48 -127 -88 -191 -101
-19 -4 -99 -9 -179 -10 -237 -5 -265 12 -276 167 -8 102 -12 510 -6 551 l5 29
106 -4 c118 -6 184 -27 229 -75 31 -33 86 -148 103 -213 11 -45 37 -69 53 -52
3 3 6 169 6 369 l0 363 -23 0 c-20 0 -25 -8 -40 -71 -21 -89 -40 -129 -79
-169 -53 -56 -109 -74 -270 -85 l-88 -7 -1 44 c-7 261 1 638 13 661 8 16 23
17 181 13 167 -5 235 -14 287 -38 64 -31 166 -127 247 -233 26 -33 49 -64 53
-68 9 -10 40 2 40 17 0 13 -116 340 -130 366 -8 16 -51 17 -565 17 l-555 0 0
-22z"/>
<path d="M1621 2990 c-56 -14 -76 -42 -76 -108 0 -47 7 -71 41 -137 200 -395
442 -725 755 -1032 71 -68 138 -127 274 -242 149 -125 488 -335 710 -440 253
-120 653 -250 875 -285 19 -3 46 -8 60 -11 34 -7 146 -23 211 -30 30 -4 68 -9
84 -12 17 -3 154 -7 305 -8 251 -4 280 -2 337 16 73 23 103 55 103 108 0 74
-45 101 -154 91 -76 -8 -398 -5 -486 4 -208 21 -297 35 -459 71 -796 176
-1517 642 -2023 1306 -128 168 -231 333 -338 542 -37 72 -78 139 -91 149 -30
22 -82 30 -128 18z"/>
</g>
</svg>
